<svg xmlns="http://www.w3.org/2000/svg" width="26" height="25" fill="none" viewBox="0 0 26 25">
    <path fill="#000" d="M18.565.971L.461 16.568c-.26.224-.289.598-.065.858l4.73 5.52c.224.261.596.29.856.065l.601-.518.723.843c.275.322.742.338 1.042.08.3-.26.337-.745.08-1.046l-.723-.843 1.121-.966.723.843c.275.321.742.338 1.042.079.3-.259.337-.744.08-1.045l-.723-.843 1.121-.966.723.843c.275.32.742.337 1.042.079.32-.276.337-.744.08-1.045l-.723-.843 1.121-.967.723.843c.275.322.742.338 1.042.08.3-.26.337-.745.08-1.046l-.723-.843 1.121-.966.723.843c.275.321.742.338 1.042.079.3-.259.337-.744.08-1.045l-.723-.843 1.121-.966.723.843c.275.32.742.337 1.042.079.3-.26.338-.744.08-1.045l-.723-.843 1.121-.966.723.842c.275.322.742.338 1.042.08.32-.277.337-.745.08-1.046l-.723-.843 1.122-.966.722.843c.275.321.742.338 1.042.08.32-.277.338-.745.08-1.046l-.723-.843.6-.518c.261-.224.29-.597.066-.858l-4.713-5.5c-.144-.33-.533-.378-.794-.154zM7.604 17.916c.137.16.12.384-.04.522l-1.362 1.174c-.16.138-.383.12-.521-.04l-1.858-2.168c-.137-.16-.12-.384.04-.522l1.362-1.173c.16-.138.383-.121.52.04l1.859 2.167zm3.284-2.83c.138.161.12.385-.04.523l-1.361 1.173c-.16.138-.384.121-.521-.04l-1.858-2.167c-.138-.16-.12-.384.04-.523l1.361-1.173c.16-.138.384-.12.521.04l1.858 2.167zm3.285-2.829c.137.16.12.385-.04.523l-1.362 1.173c-.16.138-.383.12-.521-.04l-1.858-2.168c-.137-.16-.12-.384.04-.522l1.362-1.173c.16-.138.383-.121.52.04l1.859 2.167zm3.284-2.83c.138.161.12.385-.04.523l-1.361 1.173c-.16.138-.384.121-.522-.04l-1.857-2.167c-.138-.16-.12-.384.04-.522l1.361-1.174c.16-.138.384-.12.521.04l1.858 2.168zm3.285-2.829c.137.16.12.385-.04.523L19.34 8.294c-.16.138-.383.12-.521-.04l-1.858-2.167c-.137-.161-.12-.385.04-.523l1.362-1.173c.16-.138.383-.121.52.04l1.859 2.167z"/>
</svg>
