<svg xmlns="http://www.w3.org/2000/svg" width="17" height="20" fill="none" viewBox="0 0 17 20">
    <path fill="#000" d="M12.75 16.071c0 .071-.02.14-.06.199-.039.059-.094.104-.159.131-.064.027-.136.035-.204.02-.069-.013-.132-.047-.182-.097-.05-.05-.083-.114-.096-.183-.014-.07-.007-.141.02-.206.026-.066.072-.121.13-.16.058-.04.127-.06.197-.06.094 0 .184.037.25.104.067.067.104.158.104.252zm-8.146-.357c-.07 0-.138.021-.197.06-.058.04-.103.096-.13.16-.027.066-.034.138-.02.207.013.07.047.133.097.183.05.05.112.084.181.098.069.014.14.006.205-.02.064-.028.12-.073.159-.132.039-.059.06-.128.06-.199 0-.094-.038-.185-.104-.252-.067-.067-.157-.105-.25-.105zm8.146-7.857c0 .848-.25 1.676-.716 2.381-.467.705-1.131 1.254-1.908 1.579-.776.324-1.63.409-2.455.243-.825-.165-1.582-.573-2.176-1.172-.595-.6-1-1.363-1.163-2.195-.164-.831-.08-1.693.242-2.476.321-.783.866-1.452 1.565-1.923.699-.471 1.52-.723 2.361-.723 1.127 0 2.208.452 3.005 1.256.797.803 1.245 1.894 1.245 3.03zm-2.33 0c0-.383-.113-.757-.324-1.075-.21-.319-.51-.567-.861-.713-.351-.147-.737-.185-1.11-.11-.372.074-.714.259-.982.53-.269.27-.452.615-.526.99-.074.376-.036.765.11 1.119.145.354.39.656.707.869.315.212.686.326 1.066.326.51 0 .997-.204 1.357-.567s.563-.855.563-1.369zM17 2.143v15.714c0 .569-.224 1.114-.622 1.515-.399.402-.94.628-1.503.628H2.125c-.564 0-1.104-.226-1.503-.628C.224 18.971 0 18.425 0 17.857V2.143C0 1.575.224 1.029.622.628 1.021.226 1.562 0 2.125 0h12.75c.564 0 1.104.226 1.503.628.398.401.622.947.622 1.515zM6.375 16.07c0-.353-.104-.698-.298-.992-.195-.293-.472-.522-.795-.657-.324-.136-.68-.17-1.023-.102-.344.069-.66.239-.907.489-.248.25-.416.568-.485.914-.068.346-.033.705.101 1.032.134.326.361.605.652.801.292.196.634.301.984.301.47 0 .92-.188 1.252-.523.332-.335.519-.789.519-1.263zm7.792 0c0-.353-.104-.698-.299-.992-.194-.293-.47-.522-.795-.657-.323-.136-.68-.17-1.023-.102-.343.069-.659.239-.906.489-.248.25-.417.568-.485.914-.068.346-.033.705.1 1.032.135.326.362.605.653.801.291.196.634.301.984.301.232 0 .463-.046.677-.136.215-.09.41-.221.575-.387.164-.166.295-.363.384-.58.089-.216.135-.448.135-.683zm0-8.214c0-1.13-.333-2.235-.955-3.175-.623-.94-1.508-1.672-2.543-2.104-1.036-.433-2.175-.546-3.275-.325-1.099.22-2.108.764-2.9 1.564-.793.799-1.333 1.817-1.552 2.925-.218 1.109-.106 2.258.323 3.302s1.155 1.936 2.087 2.564c.932.628 2.027.963 3.148.963 1.503 0 2.944-.602 4.007-1.673 1.063-1.072 1.66-2.525 1.66-4.04zM8.5 7.35c-.1 0-.197.03-.28.085-.082.056-.147.135-.185.228-.038.093-.048.195-.028.293.02.098.067.189.137.26.07.07.16.119.258.139.097.02.199.01.29-.03.092-.038.17-.103.226-.186.055-.083.085-.182.085-.282 0-.066-.013-.132-.038-.194-.026-.061-.063-.117-.11-.164-.046-.048-.102-.085-.163-.11-.06-.026-.126-.039-.192-.039z"/>
</svg>
